<svg
        width="143"
        height="68"
        viewBox="0 0 143 68"
        fill="none"
        xmlns="http://www.w3.org/2000/svg"
>
    <g
            clip-path="url(#clip0_426_11091)"
    >
        <mask
                id="mask0_426_11091"
                style="mask-type:alpha"
                maskUnits="userSpaceOnUse"
                x="22"
                y="9"
                width="105"
                height="16"
        >
            <g clip-path="url(#clip1_426_11091)">
                <path
                        d="M36.6254 14.6727C36.5317 14.3921 36.2748 14.1927 35.9709 14.1662L31.842 13.8029L30.2093 10.1001C30.0889 9.82874 29.8147 9.65308 29.5101 9.65308C29.2055 9.65308 28.9313 9.82874 28.811 10.1007L27.1783 13.8029L23.0487 14.1662C22.7453 14.1934 22.489 14.3921 22.3949 14.6727C22.3007 14.9534 22.3877 15.2613 22.6172 15.4553L25.7381 18.1075L24.8178 22.0355C24.7505 22.3243 24.8662 22.6229 25.1135 22.7961C25.2464 22.8892 25.402 22.9366 25.5588 22.9366C25.694 22.9366 25.8282 22.9012 25.9486 22.8314L29.5101 20.7689L33.0704 22.8314C33.3309 22.9833 33.6593 22.9694 33.9061 22.7961C34.1535 22.6224 34.2691 22.3237 34.2018 22.0355L33.2815 18.1075L36.4024 15.4559C36.6319 15.2613 36.7196 14.9539 36.6254 14.6727Z"
                        fill="#DADFEA"
                />
            </g>
            <g clip-path="url(#clip2_426_11091)">
                <path
                        d="M54.5956 14.6727C54.502 14.3921 54.245 14.1927 53.9411 14.1662L49.8122 13.8029L48.1795 10.1001C48.0591 9.82874 47.785 9.65308 47.4803 9.65308C47.1757 9.65308 46.9015 9.82874 46.7812 10.1007L45.1485 13.8029L41.0189 14.1662C40.7155 14.1934 40.4593 14.3921 40.3651 14.6727C40.2709 14.9534 40.3579 15.2613 40.5874 15.4553L43.7083 18.1075L42.7881 22.0355C42.7207 22.3243 42.8364 22.6229 43.0837 22.7961C43.2167 22.8892 43.3722 22.9366 43.529 22.9366C43.6643 22.9366 43.7984 22.9012 43.9188 22.8314L47.4803 20.7689L51.0406 22.8314C51.3011 22.9833 51.6295 22.9694 51.8763 22.7961C52.1237 22.6224 52.2393 22.3237 52.172 22.0355L51.2517 18.1075L54.3726 15.4559C54.6021 15.2613 54.6898 14.9539 54.5956 14.6727Z"
                        fill="#DADFEA"
                />
            </g>
            <g clip-path="url(#clip3_426_11091)">
                <path
                        d="M72.5658 14.6726C72.4722 14.3919 72.2152 14.1926 71.9113 14.1661L67.7824 13.8028L66.1497 10.1C66.0293 9.82861 65.7552 9.65295 65.4506 9.65295C65.1459 9.65295 64.8718 9.82861 64.7514 10.1006L63.1187 13.8028L58.9892 14.1661C58.6857 14.1932 58.4295 14.3919 58.3353 14.6726C58.2411 14.9533 58.3281 15.2611 58.5576 15.4552L61.6786 18.1073L60.7583 22.0354C60.6909 22.3242 60.8066 22.6228 61.0539 22.796C61.1869 22.8891 61.3424 22.9364 61.4992 22.9364C61.6345 22.9364 61.7686 22.9011 61.889 22.8313L65.4506 20.7688L69.0108 22.8313C69.2713 22.9832 69.5997 22.9693 69.8465 22.796C70.0939 22.6222 70.2095 22.3236 70.1422 22.0354L69.2219 18.1073L72.3428 15.4557C72.5724 15.2611 72.66 14.9538 72.5658 14.6726Z"
                        fill="#DADFEA"
                />
            </g>
            <g clip-path="url(#clip4_426_11091)">
                <path
                        d="M90.5351 14.6726C90.4414 14.3919 90.1845 14.1926 89.8805 14.1661L85.7516 13.8028L84.119 10.1C83.9986 9.82861 83.7244 9.65295 83.4198 9.65295C83.1152 9.65295 82.841 9.82861 82.7206 10.1006L81.0879 13.8028L76.9584 14.1661C76.655 14.1932 76.3987 14.3919 76.3045 14.6726C76.2103 14.9533 76.2973 15.2611 76.5268 15.4552L79.6478 18.1073L78.7275 22.0354C78.6602 22.3242 78.7759 22.6228 79.0232 22.796C79.1561 22.8891 79.3116 22.9364 79.4685 22.9364C79.6037 22.9364 79.7378 22.9011 79.8582 22.8313L83.4198 20.7688L86.98 22.8313C87.2406 22.9832 87.569 22.9693 87.8158 22.796C88.0632 22.6222 88.1788 22.3236 88.1114 22.0354L87.1911 18.1073L90.3121 15.4557C90.5416 15.2611 90.6292 14.9538 90.5351 14.6726Z"
                        fill="#DADFEA"
                />
            </g>
            <g clip-path="url(#clip5_426_11091)">
                <path
                        d="M108.506 14.6728C108.412 14.3921 108.155 14.1928 107.851 14.1662L103.722 13.803L102.09 10.1002C101.969 9.8288 101.695 9.65314 101.39 9.65314C101.086 9.65314 100.812 9.8288 100.691 10.1008L99.0586 13.803L94.9291 14.1662C94.6257 14.1934 94.3694 14.3921 94.2752 14.6728C94.181 14.9535 94.268 15.2613 94.4976 15.4554L97.6185 18.1075L96.6982 22.0356C96.6309 22.3244 96.7466 22.6229 96.9939 22.7962C97.1268 22.8892 97.2823 22.9366 97.4392 22.9366C97.5744 22.9366 97.7085 22.9013 97.8289 22.8315L101.39 20.769L104.951 22.8315C105.211 22.9834 105.54 22.9695 105.786 22.7962C106.034 22.6224 106.149 22.3238 106.082 22.0356L105.162 18.1075L108.283 15.4559C108.512 15.2613 108.6 14.954 108.506 14.6728Z"
                        fill="#DADFEA"
                />
            </g>
        </mask>
        <g mask="url(#mask0_426_11091)">
            <rect
                    x="22.3574"
                    y="9.65308"
                    width="104.429"
                    height="14.9865"
                    fill="#9197CE"
            />
            <rect
                    x="22.3574"
                    y="9.65308"
                    width="91.2214"
                    height="14.9184"
                    fill="#FFCE1F"
            />
        </g>
    </g>
    <path
            d="M103.243 24.8486C102.997 24.3471 102.881 24.0777 102.736 23.8194C101.706 21.967 100.666 20.122 99.6407 18.2696C98.7781 16.709 99.0753 15.2046 100.395 14.4112C101.764 13.5842 103.12 14.0183 104.026 15.5901C104.635 16.6491 105.229 17.7195 105.82 18.7673C107.367 18.1723 108.828 17.5623 110.321 17.0533C111.945 16.4995 113.63 16.4171 115.29 16.84C115.801 16.971 116.399 17.3826 116.653 17.8429C117.704 19.744 118.733 21.6676 119.566 23.6735C119.951 24.5978 119.994 25.7392 119.94 26.7684C119.882 27.8125 120.045 28.6919 120.599 29.5639C121.23 30.5556 121.147 30.7577 120.132 31.3677C117.798 32.7636 115.478 34.1857 113.115 35.5254C112.597 35.8211 111.93 35.8398 111.329 35.9708C110.586 36.1317 110.281 35.6003 109.933 35.0689C109.807 34.8743 109.469 34.8293 109.248 34.6871C108.06 33.9312 106.875 33.1715 105.693 32.4081C105.171 32.0713 104.689 31.6297 104.127 31.3976C102.768 30.8325 101.369 30.3648 99.9886 29.8521C98.4447 29.2795 97.6909 27.8611 98.1185 26.338C98.5426 24.8186 99.9922 24.0178 101.598 24.422C102.058 24.538 102.515 24.6615 103.258 24.8523L103.243 24.8486Z"
            fill="#434FBA"
    />
    <path
            d="M105.337 28.4436C104.953 26.491 103.508 26.1343 102.02 25.8291C101.876 25.7996 101.733 25.7555 101.589 25.7187C100.531 25.4466 99.8102 25.7445 99.534 26.5682C99.2578 27.3993 99.6631 28.0832 100.707 28.4804C102.21 29.0503 103.727 29.5725 105.219 30.1682C105.667 30.3484 106.112 30.6426 106.442 30.9993C107.493 32.1246 108.687 32.9556 110.179 33.3564C110.534 33.452 110.925 33.7609 111.105 34.0882C111.449 34.717 111.768 34.6766 112.306 34.353C114.372 33.0954 116.463 31.8818 118.543 30.6426C118.816 30.4808 119.074 30.2859 119.383 30.0726C119.146 29.6314 118.913 29.2783 118.759 28.8922C118.64 28.598 118.522 28.2413 118.576 27.9435C118.977 25.7739 118.529 23.7845 117.442 21.9128C116.958 21.078 116.492 20.2286 116.018 19.3828C115.312 18.1215 114.544 17.8089 112.991 18.2281C113.536 19.2431 114.067 20.2322 114.602 21.2288C113.748 21.637 113.73 21.6406 113.336 20.9567C112.912 20.2249 112.532 19.4637 112.073 18.754C111.922 18.5223 111.564 18.2575 111.338 18.287C110.742 18.3642 110.165 18.5922 109.462 18.7981C110.169 20.0704 110.789 21.1883 111.395 22.2842C110.75 22.7953 110.409 22.6078 110.115 22.0267C109.717 21.2435 109.293 20.4713 108.806 19.7505C108.669 19.5519 108.225 19.4159 107.977 19.4821C107.539 19.5961 107.145 19.8903 106.664 20.144C107.278 21.2656 107.834 22.2878 108.393 23.3101C107.647 23.8654 107.088 23.8911 106.732 22.9792C106.668 22.81 106.557 22.6629 106.467 22.5048C105.294 20.4235 104.143 18.3311 102.945 16.2681C102.364 15.2679 101.17 15.2275 100.775 16.224C100.61 16.6359 100.736 17.3051 100.962 17.7243C102.518 20.5926 104.103 23.4499 105.757 26.263C106.255 27.1087 106.191 27.6971 105.334 28.4473L105.337 28.4436Z"
            fill="white"
    />
    <path
            d="M3.96 67C3.696 67 3.492 66.928 3.348 66.784C3.204 66.616 3.132 66.412 3.132 66.172V42.664C3.132 42.4 3.204 42.196 3.348 42.052C3.492 41.884 3.696 41.8 3.96 41.8H13.104C14.88 41.8 16.416 42.088 17.712 42.664C19.032 43.24 20.052 44.104 20.772 45.256C21.492 46.384 21.852 47.8 21.852 49.504C21.852 51.208 21.492 52.624 20.772 53.752C20.052 54.88 19.032 55.732 17.712 56.308C16.416 56.884 14.88 57.172 13.104 57.172H6.732V66.172C6.732 66.412 6.648 66.616 6.48 66.784C6.336 66.928 6.132 67 5.868 67H3.96ZM6.696 54.148H12.924C14.7 54.148 16.032 53.752 16.92 52.96C17.808 52.168 18.252 51.016 18.252 49.504C18.252 48.016 17.82 46.864 16.956 46.048C16.092 45.232 14.748 44.824 12.924 44.824H6.696V54.148ZM33.2137 67.36C30.7417 67.36 28.7737 66.604 27.3097 65.092C25.8457 63.556 25.0417 61.468 24.8977 58.828C24.8737 58.516 24.8617 58.12 24.8617 57.64C24.8617 57.136 24.8737 56.728 24.8977 56.416C24.9937 54.712 25.3897 53.224 26.0857 51.952C26.7817 50.656 27.7297 49.66 28.9297 48.964C30.1537 48.268 31.5817 47.92 33.2137 47.92C35.0377 47.92 36.5617 48.304 37.7857 49.072C39.0337 49.84 39.9817 50.932 40.6297 52.348C41.2777 53.764 41.6017 55.42 41.6017 57.316V57.928C41.6017 58.192 41.5177 58.396 41.3497 58.54C41.2057 58.684 41.0137 58.756 40.7737 58.756H28.3177C28.3177 58.78 28.3177 58.828 28.3177 58.9C28.3177 58.972 28.3177 59.032 28.3177 59.08C28.3657 60.064 28.5817 60.988 28.9657 61.852C29.3497 62.692 29.9017 63.376 30.6217 63.904C31.3417 64.432 32.2057 64.696 33.2137 64.696C34.0777 64.696 34.7977 64.564 35.3737 64.3C35.9497 64.036 36.4177 63.748 36.7777 63.436C37.1377 63.1 37.3777 62.848 37.4977 62.68C37.7137 62.368 37.8817 62.188 38.0017 62.14C38.1217 62.068 38.3137 62.032 38.5777 62.032H40.3057C40.5457 62.032 40.7377 62.104 40.8817 62.248C41.0497 62.368 41.1217 62.548 41.0977 62.788C41.0737 63.148 40.8817 63.592 40.5217 64.12C40.1617 64.624 39.6457 65.128 38.9737 65.632C38.3017 66.136 37.4857 66.556 36.5257 66.892C35.5657 67.204 34.4617 67.36 33.2137 67.36ZM28.3177 56.272H38.1817V56.164C38.1817 55.084 37.9777 54.124 37.5697 53.284C37.1857 52.444 36.6217 51.784 35.8777 51.304C35.1337 50.8 34.2457 50.548 33.2137 50.548C32.1817 50.548 31.2937 50.8 30.5497 51.304C29.8297 51.784 29.2777 52.444 28.8937 53.284C28.5097 54.124 28.3177 55.084 28.3177 56.164V56.272ZM46.6982 67C46.4822 67 46.2902 66.928 46.1222 66.784C45.9782 66.616 45.9062 66.436 45.9062 66.244V49.108C45.9062 48.868 45.9782 48.676 46.1222 48.532C46.2902 48.364 46.4942 48.28 46.7342 48.28H48.4622C48.7022 48.28 48.8942 48.364 49.0382 48.532C49.1822 48.676 49.2542 48.868 49.2542 49.108V64.372L48.3182 63.4L59.2262 48.82C59.3462 48.676 59.4782 48.556 59.6222 48.46C59.7662 48.34 59.9462 48.28 60.1622 48.28H61.8182C62.0102 48.28 62.1782 48.352 62.3222 48.496C62.4902 48.64 62.5742 48.808 62.5742 49V66.172C62.5742 66.412 62.4902 66.616 62.3222 66.784C62.1782 66.928 61.9862 67 61.7462 67H60.0542C59.7902 67 59.5862 66.928 59.4422 66.784C59.2982 66.616 59.2262 66.412 59.2262 66.172V51.808L60.2342 51.772L49.2542 66.46C49.1582 66.58 49.0382 66.7 48.8942 66.82C48.7502 66.94 48.5582 67 48.3182 67H46.6982ZM54.3302 45.796C52.9382 45.796 51.8462 45.58 51.0542 45.148C50.2622 44.716 49.7102 44.164 49.3982 43.492C49.0862 42.796 48.9302 42.076 48.9302 41.332C48.9302 41.14 48.9782 40.984 49.0742 40.864C49.1942 40.72 49.3742 40.648 49.6142 40.648H50.8382C51.0542 40.648 51.2222 40.72 51.3422 40.864C51.4622 40.984 51.5222 41.14 51.5222 41.332C51.5222 41.884 51.7022 42.4 52.0622 42.88C52.4462 43.336 53.2022 43.564 54.3302 43.564C55.4822 43.564 56.2382 43.336 56.5982 42.88C56.9582 42.4 57.1382 41.884 57.1382 41.332C57.1382 41.14 57.1982 40.984 57.3182 40.864C57.4382 40.72 57.6062 40.648 57.8222 40.648H59.0822C59.2982 40.648 59.4662 40.72 59.5862 40.864C59.7062 40.984 59.7662 41.14 59.7662 41.332C59.7662 42.076 59.5982 42.796 59.2622 43.492C58.9502 44.164 58.3982 44.716 57.6062 45.148C56.8142 45.58 55.7222 45.796 54.3302 45.796ZM73.5677 67C73.3277 67 73.1237 66.928 72.9557 66.784C72.8117 66.616 72.7397 66.412 72.7397 66.172V51.16H66.4757C66.2357 51.16 66.0317 51.088 65.8637 50.944C65.7197 50.776 65.6477 50.572 65.6477 50.332V49.108C65.6477 48.868 65.7197 48.676 65.8637 48.532C66.0317 48.364 66.2357 48.28 66.4757 48.28H82.3157C82.5557 48.28 82.7477 48.364 82.8917 48.532C83.0597 48.676 83.1437 48.868 83.1437 49.108V50.332C83.1437 50.572 83.0597 50.776 82.8917 50.944C82.7477 51.088 82.5557 51.16 82.3157 51.16H76.0517V66.172C76.0517 66.412 75.9797 66.616 75.8357 66.784C75.6917 66.928 75.4877 67 75.2237 67H73.5677ZM87.0576 67C86.8416 67 86.6496 66.928 86.4816 66.784C86.3376 66.616 86.2656 66.436 86.2656 66.244V49.108C86.2656 48.868 86.3376 48.676 86.4816 48.532C86.6496 48.364 86.8536 48.28 87.0936 48.28H88.8216C89.0616 48.28 89.2536 48.364 89.3976 48.532C89.5416 48.676 89.6136 48.868 89.6136 49.108V64.372L88.6776 63.4L99.5856 48.82C99.7056 48.676 99.8376 48.556 99.9816 48.46C100.126 48.34 100.306 48.28 100.522 48.28H102.178C102.37 48.28 102.538 48.352 102.682 48.496C102.85 48.64 102.934 48.808 102.934 49V66.172C102.934 66.412 102.85 66.616 102.682 66.784C102.538 66.928 102.346 67 102.106 67H100.414C100.15 67 99.9456 66.928 99.8016 66.784C99.6576 66.616 99.5856 66.412 99.5856 66.172V51.808L100.594 51.772L89.6136 66.46C89.5176 66.58 89.3976 66.7 89.2536 66.82C89.1096 66.94 88.9176 67 88.6776 67H87.0576ZM109.031 67C108.791 67 108.587 66.928 108.419 66.784C108.275 66.616 108.203 66.412 108.203 66.172V49.108C108.203 48.868 108.275 48.676 108.419 48.532C108.587 48.364 108.791 48.28 109.031 48.28H110.759C110.999 48.28 111.191 48.364 111.335 48.532C111.479 48.676 111.551 48.868 111.551 49.108V56.02H121.379V49.108C121.379 48.868 121.451 48.676 121.595 48.532C121.763 48.364 121.967 48.28 122.207 48.28H123.899C124.139 48.28 124.331 48.364 124.475 48.532C124.643 48.676 124.727 48.868 124.727 49.108V66.172C124.727 66.412 124.643 66.616 124.475 66.784C124.331 66.928 124.139 67 123.899 67H122.207C121.967 67 121.763 66.928 121.595 66.784C121.451 66.616 121.379 66.412 121.379 66.172V58.9H111.551V66.172C111.551 66.412 111.479 66.616 111.335 66.784C111.191 66.928 110.999 67 110.759 67H109.031ZM130.969 67C130.729 67 130.525 66.928 130.357 66.784C130.213 66.616 130.141 66.412 130.141 66.172V49.108C130.141 48.868 130.213 48.676 130.357 48.532C130.525 48.364 130.729 48.28 130.969 48.28H141.733C141.973 48.28 142.165 48.364 142.309 48.532C142.453 48.676 142.525 48.868 142.525 49.108V50.332C142.525 50.572 142.453 50.776 142.309 50.944C142.165 51.088 141.973 51.16 141.733 51.16H133.489V66.172C133.489 66.412 133.417 66.616 133.273 66.784C133.129 66.928 132.937 67 132.697 67H130.969Z"
            fill="#434FBA"
    />
    <defs>
        <clipPath id="clip0_426_11091">
            <rect
                    width="86.5265"
                    height="14.9184"
                    fill="white"
                    transform="translate(22.3574 9.65308)"
            />
        </clipPath>
        <clipPath id="clip1_426_11091">
            <rect
                    width="14.9865"
                    height="14.9865"
                    fill="white"
                    transform="translate(22.3574 9.65308)"
            />
        </clipPath>
        <clipPath id="clip2_426_11091">
            <rect
                    width="14.9865"
                    height="14.9865"
                    fill="white"
                    transform="translate(40.3276 9.65308)"
            />
        </clipPath>
        <clipPath id="clip3_426_11091">
            <rect
                    width="14.9865"
                    height="14.9865"
                    fill="white"
                    transform="translate(58.2979 9.65308)"
            />
        </clipPath>
        <clipPath id="clip4_426_11091">
            <rect
                    width="14.9865"
                    height="14.9865"
                    fill="white"
                    transform="translate(76.2681 9.65308)"
            />
        </clipPath>
        <clipPath id="clip5_426_11091">
            <rect
                    width="14.9865"
                    height="14.9865"
                    fill="white"
                    transform="translate(94.2383 9.65308)"
            />
        </clipPath>
    </defs>
</svg>