<svg width="90" height="16" viewBox="0 0 90 16" fill="none" xmlns="http://www.w3.org/2000/svg">
<g id="Frame" clip-path="url(#clip0_4188_11605)">
<path id="Vector" fill-rule="evenodd" clip-rule="evenodd" d="M0 1.92642H1.64944V7.13251H3.14782C3.35471 5.61996 4.12791 4.24243 5.31109 3.27846C6.49427 2.31449 7.99914 1.836 9.52144 1.93974C11.0437 2.04347 12.4699 2.7217 13.5115 3.83728C14.5531 4.95286 15.1325 6.42256 15.1325 7.94922C15.1325 9.47587 14.5531 10.9456 13.5115 12.0611C12.4699 13.1767 11.0437 13.855 9.52144 13.9587C7.99914 14.0624 6.49427 13.5839 5.31109 12.62C4.12791 11.656 3.35471 10.2785 3.14782 8.76592H1.64944V13.972H0V1.92642ZM9.11359 3.32164C10.0285 3.32164 10.9228 3.59308 11.6835 4.10163C12.4442 4.61018 13.037 5.333 13.3871 6.17869C13.7373 7.02438 13.8289 7.95496 13.6504 8.85273C13.4719 9.75051 13.0313 10.5752 12.3844 11.2224C11.7375 11.8697 10.9133 12.3105 10.016 12.4891C9.11872 12.6676 8.18865 12.576 7.34342 12.2257C6.49819 11.8754 5.77576 11.2822 5.26748 10.5211C4.75921 9.76 4.48792 8.86519 4.48792 7.94982C4.49047 6.72313 4.97864 5.54742 5.84556 4.68003C6.71249 3.81263 7.88757 3.3242 9.11359 3.32164ZM24.4213 1.92642V3.57675H18.4652V13.9744H16.8158V1.92642H24.4213Z" fill="#20427D"/>
<path id="Vector_2" fill-rule="evenodd" clip-rule="evenodd" d="M80.4073 1.92642H82.0567V10.7886L88.3488 1.92884H89.9994V13.9744H88.3512V5.10618L82.0579 13.966H80.4073V1.92642ZM57.25 1.92642L58.8982 1.94698L62.3771 9.18908L65.3545 1.92642H67.0064L62.9185 11.8961C62.2756 13.6045 60.4763 13.9865 58.6553 13.7097V12.15C59.9156 12.474 62.2538 12.231 61.2328 10.2373L57.2451 1.92642H57.25ZM52.3596 1.92642H52.3729C52.9084 1.91715 53.4404 2.01467 53.9378 2.21329C54.4352 2.41191 54.8882 2.70766 55.2701 3.08327C55.6521 3.45889 55.9555 3.90686 56.1626 4.40104C56.3697 4.89521 56.4763 5.42571 56.4763 5.96157C56.4763 6.49743 56.3697 7.02793 56.1626 7.52211C55.9555 8.01628 55.6521 8.46425 55.2701 8.83987C54.8882 9.21549 54.4352 9.51123 53.9378 9.70985C53.4404 9.90847 52.9084 10.006 52.3729 9.99672H49.1768V13.972H47.5273V1.92642H52.3596ZM52.3729 3.24306C53.094 3.24306 53.7856 3.52967 54.2955 4.03983C54.8053 4.54998 55.0918 5.24191 55.0918 5.96338C55.0918 6.68486 54.8053 7.37678 54.2955 7.88694C53.7856 8.3971 53.094 8.68371 52.3729 8.68371H49.1744V3.24306H52.3729ZM73.2162 1.92642C74.3325 1.92821 75.4263 2.23998 76.3759 2.827C77.3256 3.41403 78.0937 4.25327 78.5947 5.25126H76.9683C76.3974 4.45573 75.589 3.86195 74.6593 3.55539C73.7297 3.24883 72.7269 3.2453 71.7951 3.54531C70.8633 3.84533 70.0508 4.4334 69.4743 5.2249C68.8979 6.01639 68.5873 6.97048 68.5873 7.94982C68.5873 8.92917 68.8979 9.88326 69.4743 10.6748C70.0508 11.4662 70.8633 12.0543 71.7951 12.3543C72.7269 12.6543 73.7297 12.6508 74.6593 12.3443C75.589 12.0377 76.3974 11.4439 76.9683 10.6484H78.5947C78.1143 11.6068 77.3869 12.4195 76.4876 13.0025C75.5883 13.5856 74.5497 13.9178 73.4791 13.965C72.4086 14.0121 71.3448 13.7724 70.3978 13.2707C69.4508 12.7689 68.6548 12.0233 68.0921 11.1108C67.5295 10.1983 67.2204 9.15209 67.197 8.08016C67.1736 7.00824 67.4367 5.94949 67.959 5.01329C68.4813 4.07709 69.244 3.29739 70.1682 2.75473C71.0924 2.21206 72.1446 1.92612 73.2162 1.92642Z" fill="#20427D"/>
<path id="Vector_3" fill-rule="evenodd" clip-rule="evenodd" d="M43.2243 9.7392C42.3471 13.6589 39.9617 13.9442 39.4494 14.6104C39.3794 14.6844 39.3261 14.7725 39.2929 14.8689C39.2598 14.9652 39.2476 15.0675 39.2572 15.169C39.2947 15.4761 39.5521 15.7154 39.8928 15.8073H36.6641V12.5683L36.6749 12.5877C36.6717 12.5827 36.6688 12.5774 36.6665 12.572C37.6332 14.4327 40.1804 12.4958 40.0209 9.7392H43.2243Z" fill="#20427D"/>
<path id="Vector_4" fill-rule="evenodd" clip-rule="evenodd" d="M38.6894 2.64821C38.6745 2.70406 38.6564 2.75897 38.635 2.81264C38.4223 3.32527 37.9196 3.60577 37.5148 3.43892C37.11 3.27208 36.9529 2.7135 37.1644 2.20329L37.1716 2.18757C37.1909 2.14262 37.2131 2.099 37.2381 2.057C37.5637 1.51526 38.0387 1.07907 38.606 0.800812C38.8092 1.39479 38.8385 2.03448 38.6906 2.64459L38.6894 2.64821Z" fill="#20427D"/>
<path id="Vector_5" fill-rule="evenodd" clip-rule="evenodd" d="M40.5972 4.34933C40.5607 4.39881 40.5203 4.44531 40.4763 4.48837C40.0836 4.88009 39.5096 4.9478 39.2015 4.63829C38.8934 4.32878 38.9598 3.75569 39.3513 3.36276L39.3658 3.35067C39.4004 3.31728 39.4367 3.28579 39.4746 3.25636C39.9828 2.88035 40.5887 2.65911 41.2195 2.6192C41.1799 3.24417 40.9627 3.84483 40.5936 4.35054L40.5972 4.34933Z" fill="#20427D"/>
<path id="Vector_6" fill-rule="evenodd" clip-rule="evenodd" d="M41.8166 6.5945C41.7668 6.62984 41.7148 6.66176 41.6607 6.69001C41.1689 6.94633 40.6021 6.83873 40.4003 6.44821C40.1985 6.05769 40.4342 5.53297 40.926 5.27665L40.9429 5.2694C40.9858 5.24782 41.0298 5.22845 41.0746 5.21137C41.6725 5.00573 42.317 4.97718 42.9307 5.12915C42.7049 5.71334 42.3177 6.22117 41.8141 6.59329L41.8166 6.5945Z" fill="#20427D"/>
<path id="Vector_7" fill-rule="evenodd" clip-rule="evenodd" d="M41.709 9.18183C41.6478 9.19064 41.586 9.19509 41.5242 9.19513C40.9707 9.19513 40.5176 8.83242 40.5176 8.39958C40.5176 7.96675 40.9707 7.60404 41.5242 7.60404H41.5447C41.594 7.60462 41.6433 7.60825 41.6921 7.61492C42.3163 7.70929 42.9002 7.98125 43.3742 8.39838C42.9045 8.81182 42.327 9.08312 41.709 9.18062V9.18183Z" fill="#20427D"/>
<path id="Vector_8" fill-rule="evenodd" clip-rule="evenodd" d="M34.6634 3.5828L35.0042 3.38573V0.193878H35.6168V3.03148L35.9588 2.8332V0.777841H36.5703V11.6168L34.6634 12.7231V15.7759H34.0508V0.783887H34.6634V3.5828ZM34.829 10.5299L35.7957 9.9677C35.8863 9.9145 35.9612 9.97858 35.9612 10.1104V10.4852C35.9613 10.5501 35.9464 10.6143 35.9177 10.6726C35.889 10.7308 35.8472 10.7817 35.7957 10.8213L34.829 11.3823C34.7371 11.4355 34.6622 11.3714 34.6622 11.2408V10.8648C34.6621 10.7999 34.6771 10.7358 34.7061 10.6777C34.735 10.6195 34.7771 10.5689 34.829 10.5299ZM34.829 8.62809L35.7957 8.0671C35.8863 8.0139 35.9612 8.07798 35.9612 8.20856V8.58577C35.9611 8.65055 35.9461 8.71443 35.9174 8.7725C35.8887 8.83056 35.8471 8.88125 35.7957 8.92068L34.829 9.48167C34.7371 9.53487 34.6622 9.47079 34.6622 9.34021V8.9642C34.6621 8.89909 34.6771 8.83484 34.7061 8.77652C34.735 8.71819 34.7771 8.66738 34.829 8.62809ZM34.829 6.72749L35.7957 6.1665C35.8863 6.1133 35.9612 6.17738 35.9612 6.30917V6.68397C35.9613 6.74895 35.9464 6.81307 35.9177 6.87136C35.889 6.92964 35.8472 6.98053 35.7957 7.02008L34.829 7.58107C34.7371 7.63427 34.6622 7.57019 34.6622 7.43961V7.0636C34.6621 6.99849 34.6771 6.93424 34.7061 6.87592C34.735 6.81759 34.7771 6.76679 34.829 6.72749ZM34.829 4.82689L35.7957 4.2659C35.8863 4.2127 35.9612 4.27678 35.9612 4.40857V4.78337C35.9613 4.84835 35.9464 4.91247 35.9177 4.97075C35.889 5.02904 35.8472 5.07993 35.7957 5.11948L34.829 5.68047C34.7371 5.73367 34.6622 5.66959 34.6622 5.5378V5.163C34.6621 5.09789 34.6771 5.03364 34.7061 4.97532C34.735 4.91699 34.7771 4.86619 34.829 4.82689Z" fill="#20427D"/>
<path id="Vector_9" fill-rule="evenodd" clip-rule="evenodd" d="M27.6094 4.19578L28.5495 5.0155L30.5409 2.49225L27.6094 4.19578Z" fill="#20427D"/>
<path id="Vector_10" fill-rule="evenodd" clip-rule="evenodd" d="M33.0676 2.33648H33.0773L33.1268 2.36308H33.1184L33.0773 2.34011H33.0676H33.0604H33.0543L33.0398 2.3256L33.0277 2.31593L33.0169 2.30867L33.006 2.30142H32.9999H32.9939L32.983 2.29295H32.977C32.8559 2.18756 32.7725 2.04553 32.7395 1.88841C32.7065 1.7313 32.7256 1.56769 32.7939 1.42243C32.8623 1.27717 32.9762 1.15819 33.1182 1.08357C33.2603 1.00894 33.4229 0.982749 33.5812 1.00896V0.45885C33.5389 0.45885 33.4966 0.452805 33.4543 0.452805C33.1568 0.452605 32.8686 0.555892 32.6389 0.744972C32.4092 0.934052 32.2523 1.19716 32.1952 1.48923C32.1381 1.7813 32.1842 2.08415 32.3258 2.34592C32.4673 2.60768 32.6954 2.81207 32.9709 2.92407V4.55385H31.2418V5.46909H32.9649V11.8407C32.7849 11.993 30.82 11.8346 29.9597 11.2737C29.5621 10.9351 29.4316 10.5833 30.6025 9.65476H26.7949L27.5622 13.2347C28.5749 11.3389 29.0365 12.6302 30.1639 13.6409C31.2913 14.6517 31.9595 15.2054 33.5775 15.677V2.43199H33.3528H33.3383H33.3262H33.3141L33.2694 2.42111L33.2428 2.41386H33.2344H33.2259H33.2187H33.2102H33.1993H33.1921L33.151 2.39693H33.1437L33.0773 2.36066L33.0676 2.33648Z" fill="#20427D"/>
</g>
<defs>
<clipPath id="clip0_4188_11605">
<rect width="90" height="15.6122" fill="white" transform="translate(0 0.193878)"/>
</clipPath>
</defs>
</svg>
